<svg width="242" height="48" viewBox="0 0 242 48" fill="none" xmlns="http://www.w3.org/2000/svg">
<path d="M57.0072 35.5V10.825H68.3822C71.0888 10.825 73.1772 11.3967 74.6472 12.54C76.1172 13.6833 76.8522 15.2467 76.8522 17.23C76.8522 18.7 76.4089 19.9483 75.5222 20.975C74.6588 22.0017 73.4688 22.69 71.9522 23.04V22.48C73.7255 22.7833 75.0905 23.46 76.0472 24.51C77.0272 25.5367 77.5172 26.8783 77.5172 28.535C77.5172 30.7283 76.7355 32.4433 75.1722 33.68C73.6322 34.8933 71.4972 35.5 68.7672 35.5H57.0072ZM62.2222 31.44H68.1022C69.4555 31.44 70.4939 31.1833 71.2172 30.67C71.9405 30.1567 72.3022 29.34 72.3022 28.22C72.3022 27.0767 71.9405 26.26 71.2172 25.77C70.4939 25.2567 69.4555 25 68.1022 25H62.2222V31.44ZM62.2222 20.975H67.4022C68.8255 20.975 69.8755 20.7183 70.5522 20.205C71.2289 19.6917 71.5672 18.9217 71.5672 17.895C71.5672 16.8917 71.2289 16.1333 70.5522 15.62C69.8755 15.1067 68.8255 14.85 67.4022 14.85H62.2222V20.975ZM81.0273 35.5V9.74H86.3123V35.5H81.0273ZM97.0718 35.885C94.8551 35.885 93.2101 35.2783 92.1368 34.065C91.0635 32.8283 90.5268 30.9617 90.5268 28.465V17.755H95.8118V28.465C95.8118 29.585 96.0335 30.4133 96.4768 30.95C96.9435 31.4867 97.6551 31.755 98.6118 31.755C99.6618 31.755 100.525 31.3933 101.202 30.67C101.902 29.9233 102.252 28.9317 102.252 27.695V17.755H107.537V35.5H102.392V32.105H102.882C102.345 33.295 101.575 34.2283 100.572 34.905C99.5918 35.5583 98.4251 35.885 97.0718 35.885ZM120.817 35.885C117.737 35.885 115.333 35.0567 113.607 33.4C111.88 31.7433 111.017 29.4917 111.017 26.645C111.017 24.8017 111.378 23.1917 112.102 21.815C112.848 20.4383 113.875 19.365 115.182 18.595C116.512 17.8017 118.063 17.405 119.837 17.405C121.587 17.405 123.045 17.7783 124.212 18.525C125.402 19.2717 126.288 20.3217 126.872 21.675C127.478 23.005 127.782 24.5567 127.782 26.33V27.555H115.357V24.93H123.932L123.337 25.42C123.337 23.95 123.033 22.8417 122.427 22.095C121.843 21.325 120.992 20.94 119.872 20.94C118.635 20.94 117.678 21.395 117.002 22.305C116.348 23.215 116.022 24.5217 116.022 26.225V26.785C116.022 28.5117 116.442 29.795 117.282 30.635C118.145 31.475 119.382 31.895 120.992 31.895C121.948 31.895 122.847 31.7783 123.687 31.545C124.55 31.2883 125.367 30.8917 126.137 30.355L127.607 33.855C126.72 34.5083 125.693 35.01 124.527 35.36C123.383 35.71 122.147 35.885 120.817 35.885ZM143.42 35.885C140.783 35.885 138.52 35.36 136.63 34.31C134.74 33.26 133.281 31.79 132.255 29.9C131.251 27.9867 130.75 25.735 130.75 23.145C130.75 20.555 131.251 18.315 132.255 16.425C133.281 14.535 134.74 13.065 136.63 12.015C138.52 10.965 140.783 10.44 143.42 10.44C145.123 10.44 146.675 10.685 148.075 11.175C149.475 11.6417 150.665 12.33 151.645 13.24L149.93 17.545C148.856 16.705 147.83 16.11 146.85 15.76C145.893 15.41 144.808 15.235 143.595 15.235C141.285 15.235 139.511 15.9233 138.275 17.3C137.061 18.6533 136.455 20.6017 136.455 23.145C136.455 25.6883 137.061 27.6483 138.275 29.025C139.511 30.4017 141.285 31.09 143.595 31.09C144.808 31.09 145.893 30.915 146.85 30.565C147.83 30.215 148.856 29.62 149.93 28.78L151.645 33.085C150.665 33.9717 149.475 34.66 148.075 35.15C146.675 35.64 145.123 35.885 143.42 35.885ZM162.264 35.885C160.374 35.885 158.729 35.5117 157.329 34.765C155.953 33.995 154.879 32.9217 154.109 31.545C153.363 30.1683 152.989 28.5233 152.989 26.61C152.989 24.72 153.363 23.0867 154.109 21.71C154.879 20.3333 155.953 19.2717 157.329 18.525C158.729 17.7783 160.374 17.405 162.264 17.405C164.154 17.405 165.799 17.7783 167.199 18.525C168.599 19.2717 169.673 20.3333 170.419 21.71C171.189 23.0867 171.574 24.72 171.574 26.61C171.574 28.5233 171.189 30.1683 170.419 31.545C169.673 32.9217 168.599 33.995 167.199 34.765C165.799 35.5117 164.154 35.885 162.264 35.885ZM162.264 31.895C163.478 31.895 164.434 31.4633 165.134 30.6C165.858 29.7367 166.219 28.4067 166.219 26.61C166.219 24.8133 165.858 23.495 165.134 22.655C164.434 21.815 163.478 21.395 162.264 21.395C161.051 21.395 160.083 21.815 159.359 22.655C158.659 23.495 158.309 24.8133 158.309 26.61C158.309 28.4067 158.659 29.7367 159.359 30.6C160.083 31.4633 161.051 31.895 162.264 31.895ZM201.091 35.885C199.551 35.885 198.198 35.5117 197.031 34.765C195.865 34.0183 194.955 32.9567 194.301 31.58C193.648 30.2033 193.321 28.5467 193.321 26.61C193.321 24.6967 193.648 23.0517 194.301 21.675C194.955 20.2983 195.865 19.2483 197.031 18.525C198.198 17.7783 199.551 17.405 201.091 17.405C202.515 17.405 203.786 17.755 204.906 18.455C206.05 19.1317 206.796 20.0533 207.146 21.22H206.761L207.181 17.755H212.256C212.186 18.525 212.116 19.3067 212.046 20.1C212 20.87 211.976 21.6283 211.976 22.375V35.5H206.726L206.691 32.175H207.111C206.738 33.295 205.991 34.1933 204.871 34.87C203.751 35.5467 202.491 35.885 201.091 35.885ZM202.701 31.895C203.915 31.895 204.895 31.4633 205.641 30.6C206.388 29.7367 206.761 28.4067 206.761 26.61C206.761 24.8133 206.388 23.495 205.641 22.655C204.895 21.815 203.915 21.395 202.701 21.395C201.488 21.395 200.508 21.815 199.761 22.655C199.015 23.495 198.641 24.8133 198.641 26.61C198.641 28.4067 199.003 29.7367 199.726 30.6C200.473 31.4633 201.465 31.895 202.701 31.895ZM216.276 35.5V22.445C216.276 21.675 216.252 20.8933 216.206 20.1C216.182 19.3067 216.124 18.525 216.031 17.755H221.106L221.701 22.935H220.896C221.129 21.675 221.502 20.6367 222.016 19.82C222.552 19.0033 223.206 18.3967 223.976 18C224.769 17.6033 225.667 17.405 226.671 17.405C227.114 17.405 227.464 17.4283 227.721 17.475C227.977 17.4983 228.234 17.5567 228.491 17.65L228.456 22.305C227.966 22.095 227.546 21.9667 227.196 21.92C226.869 21.85 226.449 21.815 225.936 21.815C224.956 21.815 224.139 22.0017 223.486 22.375C222.856 22.7483 222.377 23.2967 222.051 24.02C221.747 24.7433 221.596 25.6183 221.596 26.645V35.5H216.276Z" fill="white"/>
<path d="M174.987 35.5V9.74H180.272V35.5H174.987ZM184.592 35.5V9.74H189.877V35.5H184.592Z" fill="#FFB342"/>
<path d="M39.0644 29.598L44 29.598L44 25.5L29.733 25.5C29.4735 29.7521 25.9028 33.126 21.5381 33.126C17.1734 33.126 13.6027 29.7521 13.3432 25.5L-1.71502e-05 25.5L-1.75084e-05 29.598L4.07406 29.598C4.29203 30.4402 4.57747 31.267 4.92001 32.0784C5.30925 32.9925 5.77116 33.8655 6.30572 34.6923L2.74025 38.2203L8.35573 43.7768L11.9264 40.2437C12.7516 40.7624 13.6235 41.2143 14.5317 41.5943C15.5541 42.0205 16.6077 42.3543 17.682 42.5854L17.682 47.5L25.6329 47.5L25.6329 42.5443C26.645 42.3133 27.6362 41.9949 28.6015 41.5943C29.5773 41.1886 30.5062 40.7007 31.3833 40.1359L34.8917 43.6074L40.5124 38.0457L36.9469 34.5177C37.4348 33.7423 37.8552 32.9258 38.2184 32.0784C38.561 31.267 38.8464 30.4402 39.0644 29.598Z" fill="white"/>
<path d="M36.9436 7.67054V15.9455C36.9436 16.5071 36.4796 16.9627 35.9078 16.9627H35.1741C34.6022 16.9627 34.1383 16.5071 34.1383 15.9455V5.51968C32.0127 4.13169 29.6282 3.09334 27.0711 2.5V16.8567C27.0711 17.4183 26.6071 17.8739 26.0353 17.8739H17.9431C17.3712 17.8739 16.9073 17.4183 16.9073 16.8567V2.5C14.3825 3.09334 11.998 4.14228 9.87248 5.51968V15.9455C9.87248 16.5071 9.40853 16.9627 8.83668 16.9627H8.10299C7.53114 16.9627 7.06718 16.5071 7.06718 15.9455V7.67054C2.72977 11.612 0 17.2381 0 23.5H44C44.0108 17.2381 41.2918 11.612 36.9436 7.67054Z" fill="#FFB342"/>
<path d="M25 15.1436C25 15.6171 24.653 16 24.2164 16H19.7836C19.3582 16 19 15.6171 19 15.1436V0.856423C19 0.382871 19.347 0 19.7836 0H24.2164C24.6418 0 25 0.382871 25 0.856423V15.1436Z" fill="#FFB342"/>
</svg>
